<svg width="12" height="12" viewBox="0 0 12 12" fill="none" xmlns="http://www.w3.org/2000/svg">
<g id="Icon/arrow-narrow-left">
<path id="Vector" fill-rule="evenodd" clip-rule="evenodd" d="M4.6242 8.82421C4.51168 8.9367 4.3591 8.99988 4.2 8.99988C4.0409 8.99988 3.88831 8.9367 3.7758 8.82421L1.3758 6.42421C1.26332 6.3117 1.20013 6.15911 1.20013 6.00001C1.20013 5.84091 1.26332 5.68833 1.3758 5.57581L3.7758 3.17581C3.88896 3.06652 4.04052 3.00604 4.19784 3.00741C4.35516 3.00877 4.50564 3.07188 4.61689 3.18312C4.72813 3.29437 4.79124 3.44485 4.7926 3.60217C4.79397 3.75949 4.73349 3.91105 4.6242 4.02421L3.2484 5.40001H10.2C10.3591 5.40001 10.5117 5.46323 10.6243 5.57575C10.7368 5.68827 10.8 5.84088 10.8 6.00001C10.8 6.15914 10.7368 6.31175 10.6243 6.42428C10.5117 6.5368 10.3591 6.60001 10.2 6.60001H3.2484L4.6242 7.97581C4.73668 8.08833 4.79987 8.24091 4.79987 8.40001C4.79987 8.55911 4.73668 8.7117 4.6242 8.82421Z" fill="#616D8D"/>
</g>
</svg>
