<svg width="12" height="12" viewBox="0 0 12 12" fill="none" xmlns="http://www.w3.org/2000/svg">
<g id="Icon/arrow-narrow-right">
<path id="Vector" fill-rule="evenodd" clip-rule="evenodd" d="M7.37584 3.17579C7.48836 3.06331 7.64094 3.00012 7.80004 3.00012C7.95914 3.00012 8.11173 3.06331 8.22424 3.17579L10.6242 5.57579C10.7367 5.68831 10.7999 5.8409 10.7999 5.99999C10.7999 6.15909 10.7367 6.31168 10.6242 6.42419L8.22424 8.82419C8.11108 8.93349 7.95952 8.99396 7.8022 8.9926C7.64488 8.99123 7.4944 8.92813 7.38315 8.81688C7.27191 8.70564 7.20881 8.55515 7.20744 8.39783C7.20607 8.24052 7.26655 8.08895 7.37584 7.97579L8.75164 6.59999H1.80004C1.64091 6.59999 1.4883 6.53678 1.37578 6.42426C1.26326 6.31174 1.20004 6.15912 1.20004 5.99999C1.20004 5.84086 1.26326 5.68825 1.37578 5.57573C1.4883 5.46321 1.64091 5.39999 1.80004 5.39999H8.75164L7.37584 4.02419C7.26336 3.91168 7.20017 3.75909 7.20017 3.59999C7.20017 3.4409 7.26336 3.28831 7.37584 3.17579Z" fill="#616D8D"/>
</g>
</svg>
