<svg width="30" height="30" viewBox="0 0 30 30" fill="none" xmlns="http://www.w3.org/2000/svg">
<g id="variant=error">
<rect width="30" height="30" rx="4" fill="#222B44"/>
<circle id="Ellipse 26" cx="15" cy="15" r="7" stroke="#FE4242" stroke-width="2"/>
<g id="Vector">
<path fill-rule="evenodd" clip-rule="evenodd" d="M12.1255 12.1255C12.2929 11.9582 12.5642 11.9582 12.7316 12.1255L17.8745 17.2684C18.0418 17.4358 18.0418 17.7071 17.8745 17.8745C17.7071 18.0418 17.4358 18.0418 17.2684 17.8745L12.1255 12.7316C11.9582 12.5642 11.9582 12.2929 12.1255 12.1255Z" fill="#FE4242"/>
<path fill-rule="evenodd" clip-rule="evenodd" d="M12.1255 17.8745C11.9582 17.7071 11.9582 17.4358 12.1255 17.2684L17.2684 12.1255C17.4358 11.9582 17.7071 11.9582 17.8745 12.1255C18.0418 12.2929 18.0418 12.5642 17.8745 12.7316L12.7316 17.8745C12.5642 18.0418 12.2929 18.0418 12.1255 17.8745Z" fill="#FE4242"/>
</g>
</g>
</svg>
