<svg width="70" height="30" viewBox="0 0 70 30" fill="none" xmlns="http://www.w3.org/2000/svg">
<path d="M1.804 8.144H8.91C9.54067 8.144 10.1053 8.23933 10.604 8.43C11.1173 8.62067 11.55 8.88467 11.902 9.222C12.254 9.55933 12.518 9.97733 12.694 10.476C12.8847 10.96 12.98 11.4953 12.98 12.082C12.98 12.6687 12.8993 13.1673 12.738 13.578C12.5913 13.974 12.386 14.304 12.122 14.568C11.8727 14.832 11.5793 15.03 11.242 15.162C10.9193 15.294 10.582 15.3673 10.23 15.382V15.514C10.5673 15.514 10.9267 15.58 11.308 15.712C11.704 15.844 12.0633 16.0567 12.386 16.35C12.7233 16.6287 13.002 16.9953 13.222 17.45C13.442 17.89 13.552 18.44 13.552 19.1C13.552 19.716 13.4493 20.2953 13.244 20.838C13.0533 21.366 12.782 21.828 12.43 22.224C12.078 22.62 11.66 22.9353 11.176 23.17C10.692 23.39 10.164 23.5 9.592 23.5H1.804V8.144ZM4.708 21.036H8.756C9.31333 21.036 9.746 20.8967 10.054 20.618C10.362 20.3247 10.516 19.9067 10.516 19.364V18.616C10.516 18.0733 10.362 17.6553 10.054 17.362C9.746 17.0687 9.31333 16.922 8.756 16.922H4.708V21.036ZM4.708 14.546H8.294C8.822 14.546 9.23267 14.4067 9.526 14.128C9.81933 13.8347 9.966 13.4313 9.966 12.918V12.236C9.966 11.7227 9.81933 11.3267 9.526 11.048C9.23267 10.7547 8.822 10.608 8.294 10.608H4.708V14.546ZM17.6239 10.344C17.0372 10.344 16.6119 10.212 16.3479 9.948C16.0986 9.684 15.9739 9.34667 15.9739 8.936V8.496C15.9739 8.08533 16.0986 7.748 16.3479 7.484C16.6119 7.22 17.0372 7.088 17.6239 7.088C18.1959 7.088 18.6139 7.22 18.8779 7.484C19.1419 7.748 19.2739 8.08533 19.2739 8.496V8.936C19.2739 9.34667 19.1419 9.684 18.8779 9.948C18.6139 10.212 18.1959 10.344 17.6239 10.344ZM16.2159 12.016H19.0319V23.5H16.2159V12.016ZM25.882 23.5C24.914 23.5 24.1733 23.2507 23.66 22.752C23.1613 22.2387 22.912 21.5127 22.912 20.574V14.26H21.218V12.016H22.098C22.5233 12.016 22.8093 11.9207 22.956 11.73C23.1173 11.5247 23.198 11.224 23.198 10.828V8.87H25.728V12.016H28.082V14.26H25.728V21.256H27.906V23.5H25.882ZM36.1914 10.718V23.5H33.2874V10.718H28.9314V8.144H40.5474V10.718H36.1914ZM45.9516 23.764C45.101 23.764 44.3383 23.6247 43.6636 23.346C43.0036 23.0527 42.439 22.6493 41.9696 22.136C41.515 21.608 41.163 20.9773 40.9136 20.244C40.6643 19.496 40.5396 18.66 40.5396 17.736C40.5396 16.8267 40.657 16.0053 40.8916 15.272C41.141 14.5387 41.493 13.9153 41.9476 13.402C42.4023 12.874 42.9596 12.4707 43.6196 12.192C44.2796 11.8987 45.0276 11.752 45.8636 11.752C46.7583 11.752 47.5356 11.906 48.1956 12.214C48.8556 12.522 49.3983 12.94 49.8236 13.468C50.249 13.996 50.5643 14.612 50.7696 15.316C50.9896 16.0053 51.0996 16.746 51.0996 17.538V18.462H43.4656V18.748C43.4656 19.584 43.7003 20.2587 44.1696 20.772C44.639 21.2707 45.3356 21.52 46.2596 21.52C46.9636 21.52 47.5356 21.3733 47.9756 21.08C48.4303 20.7867 48.8336 20.4127 49.1856 19.958L50.7036 21.652C50.2343 22.312 49.589 22.8327 48.7676 23.214C47.961 23.5807 47.0223 23.764 45.9516 23.764ZM45.9076 13.864C45.1596 13.864 44.5656 14.1133 44.1256 14.612C43.6856 15.1107 43.4656 15.756 43.4656 16.548V16.724H48.1736V16.526C48.1736 15.734 47.9756 15.096 47.5796 14.612C47.1983 14.1133 46.641 13.864 45.9076 13.864ZM57.3392 23.764C56.2392 23.764 55.3152 23.5807 54.5672 23.214C53.8192 22.8327 53.1592 22.312 52.5872 21.652L54.3032 19.98C54.7286 20.464 55.1906 20.8453 55.6892 21.124C56.2026 21.4027 56.7892 21.542 57.4492 21.542C58.1239 21.542 58.6079 21.4247 58.9012 21.19C59.2092 20.9553 59.3632 20.6327 59.3632 20.222C59.3632 19.8847 59.2532 19.6207 59.0332 19.43C58.8279 19.2247 58.4686 19.0853 57.9552 19.012L56.8112 18.858C55.5646 18.6967 54.6112 18.3447 53.9512 17.802C53.3059 17.2447 52.9832 16.438 52.9832 15.382C52.9832 14.8247 53.0859 14.326 53.2912 13.886C53.4966 13.4313 53.7899 13.05 54.1712 12.742C54.5526 12.4193 55.0072 12.1773 55.5352 12.016C56.0779 11.84 56.6792 11.752 57.3392 11.752C57.8966 11.752 58.3879 11.796 58.8132 11.884C59.2532 11.9573 59.6492 12.0747 60.0012 12.236C60.3532 12.3827 60.6759 12.5733 60.9692 12.808C61.2626 13.028 61.5486 13.2773 61.8272 13.556L60.1772 15.206C59.8399 14.854 59.4366 14.5607 58.9672 14.326C58.4979 14.0913 57.9846 13.974 57.4272 13.974C56.8112 13.974 56.3639 14.084 56.0852 14.304C55.8212 14.524 55.6892 14.81 55.6892 15.162C55.6892 15.5433 55.7992 15.8367 56.0192 16.042C56.2539 16.2327 56.6426 16.372 57.1852 16.46L58.3512 16.614C60.8299 16.966 62.0692 18.0953 62.0692 20.002C62.0692 20.5593 61.9519 21.0727 61.7172 21.542C61.4972 21.9967 61.1819 22.3927 60.7712 22.73C60.3606 23.0527 59.8619 23.3093 59.2752 23.5C58.7032 23.676 58.0579 23.764 57.3392 23.764ZM67.9699 23.5C67.0019 23.5 66.2612 23.2507 65.7479 22.752C65.2492 22.2387 64.9999 21.5127 64.9999 20.574V14.26H63.3059V12.016H64.1859C64.6112 12.016 64.8972 11.9207 65.0439 11.73C65.2052 11.5247 65.2859 11.224 65.2859 10.828V8.87H67.8159V12.016H70.1699V14.26H67.8159V21.256H69.9939V23.5H67.9699Z" fill="white"/>
</svg>
