<svg width="16" height="16" viewBox="0 0 16 16" fill="none" xmlns="http://www.w3.org/2000/svg">
<g id="Frame">
<g id="Group">
<path id="Vector" d="M14.2788 3.68485H11.2V2.49697C11.2 1.98788 10.7879 1.57576 10.2788 1.57576H5.64849C5.1394 1.57576 4.72728 1.98788 4.72728 2.49697V3.68485H1.72122C0.896977 3.68485 0.242432 4.36364 0.242432 5.16364V6.01212L7.12728 9.21212C7.17577 8.75152 7.5394 8.38788 8.00001 8.38788C8.46061 8.38788 8.84849 8.75152 8.87274 9.21212L15.7576 6.01212V5.16364C15.7576 4.36364 15.103 3.68485 14.2788 3.68485ZM10.7152 3.68485H5.21213V2.49697C5.21213 2.25455 5.40607 2.06061 5.64849 2.06061H10.2788C10.5212 2.06061 10.7152 2.25455 10.7152 2.49697V3.68485Z" fill="#4785FF"/>
<path id="Vector_2" d="M8.41213 10.3273V9.28485C8.41213 9.06667 8.24244 8.87273 8.00001 8.87273C7.75759 8.87273 7.58789 9.04242 7.58789 9.28485V10.3273C7.58789 10.5455 7.75759 10.7394 8.00001 10.7394C8.24244 10.7394 8.41213 10.5455 8.41213 10.3273Z" fill="#4785FF"/>
<path id="Vector_3" d="M8.89698 10.3273C8.89698 10.8121 8.5091 11.2242 8.00001 11.2242C7.49092 11.2242 7.10304 10.8364 7.10304 10.3273V9.74546L0.242432 6.54546V12.9455C0.242432 13.7697 0.896977 14.4242 1.72122 14.4242H14.2788C15.103 14.4242 15.7576 13.7697 15.7576 12.9455V6.54546L8.89698 9.74546V10.3273Z" fill="#4785FF"/>
</g>
</g>
</svg>
